<svg id="Layer_1" data-name="Layer 1" xmlns="http://www.w3.org/2000/svg" viewBox="0 0 1045.48 321.14"><defs><style>.cls-1{fill:#ebe729;}.cls-2{fill:#fff;}</style></defs><title>ColossusFramework</title><path class="cls-1" d="M169,331.61c-88.54,0-160.57-72-160.57-160.57S80.46,10.47,169,10.47,329.57,82.5,329.57,171,257.54,331.61,169,331.61Zm0-308.14C87.63,23.47,21.43,89.67,21.43,171S87.63,318.61,169,318.61,316.57,252.41,316.57,171,250.37,23.47,169,23.47Z" transform="translate(-8.43 -10.47)"/><path class="cls-2" d="M395.79,132.13h48.29V143.9H408.54v21.67H440v11.66H408.54v31.9H395.79Z" transform="translate(-8.43 -10.47)"/><path class="cls-2" d="M456.5,132.13h27.83c8.8,0,16,2.64,20.57,7.26,4.07,4.07,6.38,9.9,6.38,16.94v.44c0,11.88-6.6,19.25-16,22.55l18.15,29.81H498.74l-16.39-27.28a1.86,1.86,0,0,1-.77.11H469.26v27.17H456.5ZM483,170.52c9.9,0,15.4-5.28,15.4-13.31V157c0-8.69-5.61-13.2-15.18-13.2h-14v26.73Z" transform="translate(-8.43 -10.47)"/><path class="cls-2" d="M547.58,131.69H559.9l28.27,77.44H574.86L568.48,191H538.56l-6.38,18.15H519.31Zm16.94,48-11-30.91-11,30.91Z" transform="translate(-8.43 -10.47)"/><path class="cls-2" d="M599.17,132.13h13.31l19.8,35.42L652,132.13h13.42v77H652.74V154.68l-20.46,35.64H632L611.6,154.9v54.23H599.17Z" transform="translate(-8.43 -10.47)"/><path class="cls-2" d="M682,132.13h48.51v11.55H694.65v20.9h31.79v11.55H694.65v21.45h36.41v11.55H682Z" transform="translate(-8.43 -10.47)"/><path class="cls-2" d="M739.31,132.13h13.53L767.91,188l15.73-56.1h11L810.37,188l15.07-55.88h13.2L816.2,209.57H804.65l-15.73-54.34-15.73,54.34H761.64Z" transform="translate(-8.43 -10.47)"/><path class="cls-2" d="M844,171.29v-1.1c0-22.88,14.08-39.27,34.21-39.27s34,16.28,34,39.05v1.1c0,22.88-14.08,39.27-34.21,39.27S844,194.06,844,171.29Zm55-.22v-.77c0-16.5-8.8-27.61-21-27.61s-20.79,10.89-20.79,27.5V171c0,16.5,8.91,27.61,21,27.61S899,187.68,899,171.07Z" transform="translate(-8.43 -10.47)"/><path class="cls-2" d="M926.09,132.13h27.83c8.8,0,16,2.64,20.57,7.26,4.07,4.07,6.38,9.9,6.38,16.94v.44c0,11.88-6.6,19.25-16,22.55l18.15,29.81H968.33l-16.39-27.28a1.86,1.86,0,0,1-.77.11H938.85v27.17H926.09Zm26.51,38.39c9.9,0,15.4-5.28,15.4-13.31V157c0-8.69-5.61-13.2-15.18-13.2h-14v26.73Z" transform="translate(-8.43 -10.47)"/><path class="cls-2" d="M994.73,132.13h12.76V170l29.81-37.84h15.4l-26.84,33.11,28,43.89h-15.18l-21.67-33.77-9.57,11.55v22.22H994.73Z" transform="translate(-8.43 -10.47)"/><path class="cls-1" d="M173.32,243.09A74.56,74.56,0,0,1,144,237.34a71,71,0,0,1-38.81-39.23,75.75,75.75,0,0,1-5.53-28.83v-.38a74.48,74.48,0,0,1,20.91-52.3,71.76,71.76,0,0,1,23.62-16,76.78,76.78,0,0,1,30.23-5.85,93.68,93.68,0,0,1,18,1.62,76.91,76.91,0,0,1,15,4.51,66.57,66.57,0,0,1,12.63,7,84.33,84.33,0,0,1,10.55,8.93l-8.48,8.49a72.33,72.33,0,0,0-9-7.65,54.53,54.53,0,0,0-10.35-5.76,64.87,64.87,0,0,0-12.66-3.78,81.72,81.72,0,0,0-15.69-1.39,64.87,64.87,0,0,0-25.53,4.89A59.81,59.81,0,0,0,129.22,125a62.38,62.38,0,0,0-12.89,19.77,63.11,63.11,0,0,0-4.63,24.18v.38a63.8,63.8,0,0,0,4.64,24.29,59,59,0,0,0,32.39,32.73,62.64,62.64,0,0,0,24.59,4.8,80.34,80.34,0,0,0,16.12-1.48,56.25,56.25,0,0,0,12.85-4.25,57,57,0,0,0,10.82-6.73,89.88,89.88,0,0,0,9.88-9.18l8.79,8.17A102,102,0,0,1,220.56,228a69,69,0,0,1-13.1,8.15,68.21,68.21,0,0,1-15.59,5.17A92.23,92.23,0,0,1,173.32,243.09Zm.94-26.75a42.25,42.25,0,0,1-32.09-14.27,48.05,48.05,0,0,1-8.94-15A51.39,51.39,0,0,1,130,168.9v-.38h12v.38a39.46,39.46,0,0,0,2.44,13.9,36.15,36.15,0,0,0,6.7,11.32,30.25,30.25,0,0,0,23.1,10.22c6.51,0,12-1.16,16.31-3.44a68.61,68.61,0,0,0,14.27-10.4l8.16,8.8a80.54,80.54,0,0,1-16.81,12.2C190.13,214.71,182.75,216.34,174.26,216.34ZM204,146.8a64.24,64.24,0,0,0-14.37-10,34.32,34.32,0,0,0-15.33-3.33,31,31,0,0,0-12.88,2.67l-5-10.93a42.89,42.89,0,0,1,17.83-3.74A46.19,46.19,0,0,1,194.91,126,76.2,76.2,0,0,1,212,137.89Z" transform="translate(-8.43 -10.47)"/><circle class="cls-1" cx="150.47" cy="120.22" r="12.01"/><circle class="cls-1" cx="200.49" cy="184.43" r="12.01"/></svg>