<svg id="Layer_1" data-name="Layer 1" xmlns="http://www.w3.org/2000/svg" viewBox="0 0 256.08 79.32"><defs><style>.cls-1,.cls-2{fill:#fff;}.cls-2{fill-rule:evenodd;}</style></defs><title>pms-sistemas-transparente</title><path class="cls-1" d="M3.67,76.31H2.09v2.85H0V69.67H3.87C6.14,69.67,7.51,71,7.51,73v0C7.51,75.17,5.81,76.31,3.67,76.31ZM5.4,73c0-.93-.65-1.43-1.7-1.43H2.09v2.9H3.74A1.47,1.47,0,0,0,5.4,73Z"/><path class="cls-1" d="M16.47,79.16l-2-3H12.8v3H10.71V69.67H15c2.24,0,3.58,1.17,3.58,3.13v0a3,3,0,0,1-2,2.94l2.32,3.39Zm0-6.25c0-.9-.62-1.36-1.64-1.36H12.8v2.72h2.12c1,0,1.6-.54,1.6-1.35Z"/><path class="cls-1" d="M22.26,79.16V69.67h2.09v9.49Z"/><path class="cls-1" d="M35.78,79.16V73L33.11,77h-.05l-2.65-4v6.16h-2V69.67h2.25l2.5,4,2.49-4h2.25v9.49Z"/><path class="cls-1" d="M41.78,79.16V69.67h7.16v1.85H43.85v1.92h4.48v1.86H43.85v2H49v1.86Z"/><path class="cls-1" d="M52.61,79.16V69.67h2.09v9.49Z"/><path class="cls-1" d="M64.48,79.16l-2-3H60.8v3H58.72V69.67h4.34c2.23,0,3.58,1.17,3.58,3.13v0a3,3,0,0,1-2,2.94l2.32,3.39Zm0-6.25c0-.9-.62-1.36-1.64-1.36H60.8v2.72h2.12c1,0,1.6-.54,1.6-1.35Z"/><path class="cls-1" d="M77.23,79.16,76.36,77h-4l-.87,2.13H69.35l4.07-9.56h1.92l4.07,9.56Zm-2.87-7.05L73.1,75.18h2.52Z"/><path class="cls-1" d="M92.69,79.32a4.79,4.79,0,0,1-4.87-4.88v0a4.82,4.82,0,0,1,4.95-4.9A4.89,4.89,0,0,1,96.51,71L95.18,72.5a3.51,3.51,0,0,0-2.43-1.07,2.82,2.82,0,0,0-2.75,3v0a2.82,2.82,0,0,0,2.75,3,3.44,3.44,0,0,0,2.5-1.11l1.33,1.34A4.85,4.85,0,0,1,92.69,79.32Z"/><path class="cls-1" d="M107,79.16,106.09,77h-4l-.87,2.13H99.08l4.07-9.56h1.92l4.07,9.56Zm-2.87-7.05-1.26,3.08h2.52Z"/><path class="cls-1" d="M115.92,76.31h-1.59v2.85h-2.09V69.67h3.87c2.27,0,3.64,1.34,3.64,3.28v0C119.76,75.17,118.05,76.31,115.92,76.31ZM117.64,73c0-.93-.65-1.43-1.69-1.43h-1.61v2.9H116A1.47,1.47,0,0,0,117.64,73Z"/><path class="cls-1" d="M123,79.16V69.67h2.09v9.49Z"/><path class="cls-1" d="M133.46,71.59v7.57h-2.09V71.59h-2.89V69.67h7.86v1.92Z"/><path class="cls-1" d="M145.43,79.16,144.57,77h-4l-.87,2.13h-2.13l4.06-9.56h1.93l4.06,9.56Zm-2.87-7.05-1.26,3.08h2.53Z"/><path class="cls-1" d="M150.73,79.16V69.67h2.09v7.59h4.72v1.9Z"/><path class="cls-1" d="M170.19,79.16h-3.7V69.67h3.7a4.73,4.73,0,0,1,5,4.71v0A4.75,4.75,0,0,1,170.19,79.16ZM173,74.41a2.72,2.72,0,0,0-2.86-2.86h-1.61v5.72h1.61A2.7,2.7,0,0,0,173,74.44Z"/><path class="cls-1" d="M183.34,79.32a4.86,4.86,0,0,1-5-4.88v0a5,5,0,0,1,10.08,0v0A4.9,4.9,0,0,1,183.34,79.32Zm2.87-4.91a2.88,2.88,0,0,0-2.87-3,2.84,2.84,0,0,0-2.85,3v0a2.88,2.88,0,0,0,2.87,3,2.84,2.84,0,0,0,2.85-3Z"/><path class="cls-1" d="M202.13,79.16h-4.51V69.67H202c1.94,0,3.13,1,3.13,2.45v0a2.21,2.21,0,0,1-1.24,2,2.32,2.32,0,0,1,1.77,2.33v0C205.68,78.29,204.27,79.16,202.13,79.16Zm.95-6.68c0-.63-.48-1-1.36-1h-2.06v2h1.92c.93,0,1.51-.3,1.51-1Zm.53,3.79c0-.63-.47-1-1.55-1h-2.41v2.09h2.48c.92,0,1.48-.33,1.48-1Z"/><path class="cls-1" d="M214.82,79.16l-2-3h-1.64v3h-2.08V69.67h4.34c2.23,0,3.58,1.17,3.58,3.13v0a3,3,0,0,1-2,2.94l2.32,3.39Zm0-6.25c0-.9-.62-1.36-1.64-1.36h-2.08v2.72h2.12c1,0,1.6-.54,1.6-1.35Z"/><path class="cls-1" d="M227.57,79.16,226.7,77h-4l-.86,2.13h-2.13l4.07-9.56h1.92l4.07,9.56Zm-2.87-7.05-1.26,3.08H226Z"/><path class="cls-1" d="M236.1,79.29a6,6,0,0,1-4-1.52l1.23-1.47a4.35,4.35,0,0,0,2.83,1.15c.85,0,1.37-.34,1.37-.9v0c0-.53-.32-.8-1.91-1.2-1.91-.49-3.15-1-3.15-2.9v0c0-1.72,1.38-2.86,3.32-2.86a5.5,5.5,0,0,1,3.52,1.2l-1.09,1.57a4.43,4.43,0,0,0-2.47-.93c-.79,0-1.22.36-1.22.83v0c0,.63.41.83,2,1.25,1.92.5,3,1.2,3,2.85v0C239.59,78.23,238.15,79.29,236.1,79.29Z"/><path class="cls-1" d="M243.15,79.16V69.67h2.08v9.49Z"/><path class="cls-1" d="M249.25,79.16V69.67h2.09v7.59h4.73v1.9Z"/><path class="cls-1" d="M59.81,40.22l.07-2.48c0-.09-.08-.17-.12-.26a.37.37,0,0,0,0-.08l-.08-.23,0-.12c0-.07,0-.14-.05-.21a.81.81,0,0,1,0-.13c0-.07,0-.13,0-.2a.77.77,0,0,1,0-.15,1,1,0,0,1,0-.17.94.94,0,0,1,0-.17.7.7,0,0,1,0-.14,1.49,1.49,0,0,0,0-.19s0-.07,0-.11a1.84,1.84,0,0,1,.09-.28l.11-.25,0,0,.07-.13,0,0,0-.08h0l0,0,0-1.37h0c0-.21-.1-.42-.13-.63s0-.14,0-.22,0-.14,0-.22,0-.33,0-.5a4,4,0,0,1,0-.43,1.19,1.19,0,0,1,0-.13c0-.1,0-.2,0-.3a.62.62,0,0,0,0-.13l.06-.31a.59.59,0,0,0,0-.09c0-.13.07-.27.11-.39l.07-2.46-.39-.44c-.16-.17-.31-.35-.46-.54a2.08,2.08,0,0,1-.2-.28L59,26h0l-.49,16.11A12.55,12.55,0,0,1,59.81,40.22Z"/><path class="cls-1" d="M58.35,49.42v0a.89.89,0,0,1,.1-.16l.08-.09.07-.06a1.09,1.09,0,0,1,.19-.14A3.74,3.74,0,0,1,58,48a3,3,0,0,1-1.4,1.24l-.09,0c-.79.35-2,.87-3.42,1.4l1.53.21,1,.15L57,50.45l.09,0a4.63,4.63,0,0,0,1.19-.78A.81.81,0,0,1,58.35,49.42Z"/><path class="cls-1" d="M42.28,11.38l-18.42-.12.3,9.72h0a9.41,9.41,0,0,1,1.32,2.18l-.32-10.61,17.11.11,17.11-.11-.32,10.51A9.55,9.55,0,0,1,60.35,21l0,0,.29-9.76Z"/><path class="cls-1" d="M60.74,43.31a18.88,18.88,0,0,1-2,1.06,3.36,3.36,0,0,0-.54.86,5.18,5.18,0,0,0-.1,1.94s0,.07,0,.1a3.38,3.38,0,0,0,1.06,1.36,7.24,7.24,0,0,0,.78-.86,5.5,5.5,0,0,1,.42-2.32,3,3,0,0,1,.34-.57A3.15,3.15,0,0,1,60.74,43.31Z"/><path class="cls-1" d="M25.66,48.93a1,1,0,0,1,.56.67,4.78,4.78,0,0,0,1.25.82l.08,0L29,51.1l1.43-.17,1.25-.15c-1.58-.55-2.83-1.11-3.65-1.48l-.09,0a3,3,0,0,1-1.48-1.4,3.83,3.83,0,0,1-.87,1h0Z"/><path class="cls-1" d="M62.17,36.93h0Z"/><path class="cls-1" d="M22.44,36.93h0Z"/><path class="cls-1" d="M31.27,53.45a1.17,1.17,0,0,0-.95-.24.58.58,0,0,0-.3.12s0,.13,0,.28l.3,1.87.05.19c.08.15.26.21.56.17a1,1,0,0,0,.71-.47,1.37,1.37,0,0,0,.13-1A1.43,1.43,0,0,0,31.27,53.45Z"/><path class="cls-1" d="M35.07,53.94l-.36-.61c-.08-.15-.15-.22-.17-.22s0,.05-.07.16l0,.1-.17.6V54s0,0,0,.06.05.06.15,0l.63-.08s.07,0,.07-.06a.06.06,0,0,0,0,0Z"/><path class="cls-1" d="M37.43,52.23a.26.26,0,0,0-.19.08.33.33,0,0,0,0,.23l.06.74a.35.35,0,0,0,0,.17.3.3,0,0,0,.18,0l.47-.05a.35.35,0,0,0,.16-.1.52.52,0,0,0,.12-.41.73.73,0,0,0-.8-.69Z"/><path class="cls-1" d="M28,55l-.34-.63c-.08-.15-.14-.23-.16-.22s0,.05-.08.16l0,.09-.2.6,0,.05s0,0,0,.06.06.07.16.06l.62-.05c.06,0,.08,0,.08,0a.13.13,0,0,0,0,0Z"/><path class="cls-1" d="M51.54,52.76a.74.74,0,0,0-.5-.28.29.29,0,0,0-.21,0,.33.33,0,0,0-.08.22l-.09.74a.25.25,0,0,0,0,.18s.08,0,.16.06a3.21,3.21,0,0,0,.47,0,.33.33,0,0,0,.18-.07.49.49,0,0,0,.2-.37A.72.72,0,0,0,51.54,52.76Z"/><path class="cls-1" d="M24,55.15l-.26-.67c-.06-.16-.11-.24-.14-.24s0,0-.1.15l0,.09-.26.57,0,.05a.09.09,0,0,0,0,.05s0,.08.15.08l.62,0c.06,0,.09,0,.09,0a.2.2,0,0,0,0,0Z"/><path class="cls-1" d="M43.6,53.45l-.27-.67c-.07-.15-.12-.23-.14-.23s0,0-.1.15l0,.09-.26.57,0,.06a.14.14,0,0,0,0,.05s.05.08.15.08h.63c.05,0,.08,0,.08,0l0,0Z"/><path class="cls-1" d="M61.64,52c-.3,0-.61,0-.92,0a46.63,46.63,0,0,1-6.21-.62,77.37,77.37,0,0,0-11.39-1c-1.52,0-3,.06-4.57.18-3,.19-5.67.52-8,.81a60,60,0,0,1-6.93.61l-1.08,0c-3.69-.22-7.95-1.16-10.05-3.13.28.86.53,1.77.71,2.4l.12.41a7,7,0,0,1,.18,1,3.71,3.71,0,0,0,1.79,3.14c1.46.84,4.22,1.84,9.05,1.84a45.38,45.38,0,0,0,6.59-.53,76,76,0,0,1,11.18-.82c1.4,0,2.83,0,4.24.12h0c2.33.12,4.66.35,6.91.69a45.47,45.47,0,0,0,6.6.53c4.83,0,7.6-1,9.06-1.83a3.74,3.74,0,0,0,1.78-3.14,6.42,6.42,0,0,1,.18-1,24.27,24.27,0,0,1,1.07-2.59L72,49C69.72,50.85,65.27,51.77,61.64,52ZM16.92,55.47l-.15-.08-.41-.19L16,55.11l-.15,0a.06.06,0,0,1,0-.07v0l.08,0a.37.37,0,0,0,.23-.06.49.49,0,0,0,.14-.24l.07-.18L17,52.88a.46.46,0,0,0,0-.29.38.38,0,0,0-.2-.19.33.33,0,0,1-.12-.08.06.06,0,0,1,0-.06s0,0,.07,0l.1.05.24.11.28.09.16,0,.32.1s.06,0,0,.07a.14.14,0,0,1,0,0h-.06a.31.31,0,0,0-.22,0,.46.46,0,0,0-.13.21l-.63,1.72-.06.21a.4.4,0,0,0,0,.28.35.35,0,0,0,.21.17c.06,0,.09.06.07.1S17,55.49,16.92,55.47Zm2.57.46A.51.51,0,0,1,19,56L18.85,56l-.25-.07-.22-.06-.25-.07a4.36,4.36,0,0,0-.53-.09l-.12,0s-.05,0,0-.07,0,0,.07,0a.3.3,0,0,0,.21-.1.9.9,0,0,0,.14-.34l.42-1.75a.34.34,0,0,0-.18-.45L18,52.83s-.07,0-.06-.08A.07.07,0,0,1,18,52.7l.05,0,.08,0,.09,0,.18.06.32,0L19,53c.08,0,.12,0,.11.09s0,0-.11,0-.23.06-.28.24l-.44,1.82c-.06.26-.06.42,0,.46a.5.5,0,0,0,.2.07,1.15,1.15,0,0,0,1.09-.18.51.51,0,0,1,.14-.11s0,0,0,.1A.74.74,0,0,1,19.49,55.92Zm2.09.47-.2,0-.25,0-.23,0-.26,0a4.68,4.68,0,0,0-.53,0H20s-.06,0,0-.06,0,0,.06,0a.27.27,0,0,0,.2-.13,1,1,0,0,0,.1-.36l.22-1.79a.33.33,0,0,0-.23-.42l-.13,0c-.05,0-.08,0-.08-.07a.07.07,0,0,1,.08-.06l.06,0,.08,0,.09,0,.19,0a1.78,1.78,0,0,0,.33,0l.33,0c.09,0,.13,0,.12.07s0,0-.1,0-.23.08-.25.28L20.8,55.6c0,.27,0,.42,0,.46a.54.54,0,0,0,.21.05,1.15,1.15,0,0,0,1.06-.3q.11-.12.13-.12s0,0,0,.09a.72.72,0,0,1-.24.46A.48.48,0,0,1,21.59,56.39Zm3.67.19-.08,0a2.41,2.41,0,0,0-.53,0,2.26,2.26,0,0,0-.5,0H24.1s-.06,0-.06-.06,0,0,0,0a.39.39,0,0,0,.17-.1.27.27,0,0,0,.07-.17,1.73,1.73,0,0,0-.17-.53.24.24,0,0,0-.12-.15,3.13,3.13,0,0,0-.49,0h-.29l-.19,0c-.05,0-.12.12-.19.28l-.07.17a.37.37,0,0,0,0,.14c0,.18.11.29.36.33.06,0,.08,0,.08.06s0,.06-.08.06l-.11,0a1,1,0,0,0-.25,0h-.53s-.06,0-.06-.05,0-.05.06-.07a.35.35,0,0,0,.19-.13,3,3,0,0,0,.21-.4l.62-1.35.1-.22.21-.41.11-.2h0c0-.11.08-.16.1-.16s.06.06.11.18l0,.11.91,2.28a.82.82,0,0,0,.16.26.55.55,0,0,0,.25.12s0,0,0,.06S25.29,56.58,25.25,56.58Zm4.12-.32h-.08a3.34,3.34,0,0,0-.54,0,2.35,2.35,0,0,0-.48.08h-.05a.06.06,0,0,1-.07-.06s0,0,0,0a.33.33,0,0,0,.15-.12A.23.23,0,0,0,28.4,56a1.74,1.74,0,0,0-.23-.51c0-.08-.09-.13-.14-.13a3.19,3.19,0,0,0-.49,0l-.29,0-.18,0c-.05,0-.1.13-.15.3l0,.18a.35.35,0,0,0,0,.14c0,.18.15.27.39.28.06,0,.08,0,.08.06s0,.06-.06.06h-.12a.82.82,0,0,0-.25,0l-.32,0-.2,0s-.06,0-.06,0,0-.05,0-.07a.36.36,0,0,0,.18-.15,3.08,3.08,0,0,0,.17-.43l.46-1.4c0-.11.06-.19.08-.23l.16-.43.08-.21h0c0-.12.06-.18.08-.18s.07.05.13.18l.06.1,1.17,2.16a.63.63,0,0,0,.19.24.54.54,0,0,0,.26.09s0,0,0,.06A0,0,0,0,1,29.38,56.26Zm2.51-.78a1.5,1.5,0,0,1-.9.5l-.35,0-.32,0-.5.11-.12,0s-.05,0-.06-.06a.06.06,0,0,1,0-.06.24.24,0,0,0,.16-.14.61.61,0,0,0,0-.29l-.3-1.86a.41.41,0,0,0-.16-.3.42.42,0,0,0-.33-.06s-.07,0-.08-.05a0,0,0,0,1,0,0l.12,0,.32,0,.2,0,.36-.09a4.54,4.54,0,0,1,.48-.11,1.71,1.71,0,0,1,1.2.19,1.25,1.25,0,0,1,.59.91A1.59,1.59,0,0,1,31.88,55.48Zm4.66-.32h-.08a2.62,2.62,0,0,0-.53,0,2.28,2.28,0,0,0-.49.1l-.05,0s-.06,0-.07-.05,0,0,0-.05a.3.3,0,0,0,.15-.13.25.25,0,0,0,0-.17,1.86,1.86,0,0,0-.25-.5.26.26,0,0,0-.14-.13,3.59,3.59,0,0,0-.49,0l-.29,0-.18.06a.59.59,0,0,0-.14.31l0,.17A.38.38,0,0,0,34,55c0,.18.16.27.41.27.06,0,.08,0,.09,0s0,.06-.07.07h-.36l-.32.06-.2,0s-.06,0-.07,0,0-.05,0-.07a.37.37,0,0,0,.17-.15,3.07,3.07,0,0,0,.15-.44l.4-1.43c0-.11.06-.18.06-.23l.15-.43.08-.22h0c0-.11.05-.17.07-.17s.07,0,.14.16l.06.11,1.25,2.11a.67.67,0,0,0,.2.23.49.49,0,0,0,.26.08s0,0,0,.05S36.58,55.15,36.54,55.15Zm2.73-.33a.73.73,0,0,1-.3.1.53.53,0,0,1-.42-.18A5.14,5.14,0,0,1,38,54a1.13,1.13,0,0,0-.21-.28.37.37,0,0,0-.25,0h-.13l-.09,0s0,0,0,.11l0,.44a1.4,1.4,0,0,0,.12.54.35.35,0,0,0,.3.14c.06,0,.09,0,.09.06s0,.07-.06.07H37.7a2.6,2.6,0,0,0-.35,0l-.26,0-.17,0-.14,0h-.08c-.05,0-.08,0-.08-.05a.05.05,0,0,1,0-.06.4.4,0,0,0,.18-.14.39.39,0,0,0,0-.24l0-.2v-.08l-.13-1.55a.68.68,0,0,0-.1-.34.47.47,0,0,0-.34-.15c-.07,0-.1,0-.1-.06a.05.05,0,0,1,.05-.07h.43c.14,0,.32,0,.52-.07l.48-.06a1,1,0,0,1,.7.17.73.73,0,0,1,.31.54.66.66,0,0,1-.09.39.73.73,0,0,1-.3.3s0,0,0,0a.07.07,0,0,0,0,.05l.06.1.22.32.25.38a1.08,1.08,0,0,0,.22.26.3.3,0,0,0,.21.05h.13s0,0,0,0S39.39,54.77,39.27,54.83Zm1.46.07a1.33,1.33,0,0,1-1-.37,1.45,1.45,0,0,1-.44-1,1.8,1.8,0,0,1,.13-.7,1.47,1.47,0,0,1,.37-.57A1.47,1.47,0,0,1,41.38,52l.14.08a.12.12,0,0,0,.07,0,.07.07,0,0,0,.07,0l0-.07,0,0s.06,0,.07.14v.36l0,.16,0,.1s0,.09,0,.13,0,.08-.06.08,0,0,0,0a1.06,1.06,0,0,0-.13-.25,1.41,1.41,0,0,0-.2-.26,1.1,1.1,0,0,0-.84-.37.77.77,0,0,0-.65.36,1.45,1.45,0,0,0-.22.87,1.54,1.54,0,0,0,.45,1.1.91.91,0,0,0,.68.28,1,1,0,0,0,.45-.12.94.94,0,0,0,.37-.27l.13-.16s0,0,.06,0,0,0,0,0a.54.54,0,0,1-.15.29A1.39,1.39,0,0,1,40.73,54.9Zm7.46-.19a.46.46,0,0,0,.33.19.06.06,0,0,1,.06.07s-.05.05-.15,0H48.3a2.74,2.74,0,0,0-.37-.05,2.3,2.3,0,0,0-.37,0h-.19s-.06,0,0-.06,0,0,.06-.05a.31.31,0,0,0,.17-.1.45.45,0,0,0,.07-.22v-.1l0-1.44s0-.06,0-.06-.05,0-.1.12l-.9,1.67,0,.06c0,.09-.08.13-.11.13s-.08-.08-.15-.24l-.09-.23-.59-1.58v0s0,0,0,0,0,0,0,.09V53l-.09,1.09v.29a.45.45,0,0,0,.31.41c.06,0,.1,0,.1.08s0,.06-.08.05l-.14,0-.15,0-.17,0H45s0,0,0,0,0,0,0,0l-.08,0a3.22,3.22,0,0,0-.53,0,2,2,0,0,0-.5,0h-.06a.06.06,0,0,1-.06-.06s0,0,0,0a.32.32,0,0,0,.17-.11.24.24,0,0,0,.07-.17,1.85,1.85,0,0,0-.19-.53c0-.08-.08-.13-.13-.15l-.49,0h-.28l-.19,0c-.05,0-.11.12-.18.29l-.07.16a.4.4,0,0,0,0,.15c0,.18.12.29.37.32.05,0,.08,0,.08.06s0,.06-.08.06h-.11l-.25,0-.32,0h-.21a.05.05,0,0,1-.06-.05s0-.05.06-.06a.37.37,0,0,0,.18-.13,3,3,0,0,0,.2-.41l.6-1.35a1.49,1.49,0,0,1,.1-.22l.2-.41.1-.2h0c0-.11.08-.17.09-.17s.06.06.12.18l0,.11,1,2.26a.62.62,0,0,0,.18.26.46.46,0,0,0,.25.12h0s0,0,0,0a.43.43,0,0,0,.25-.19.9.9,0,0,0,.1-.4l.13-1.41,0-.14a.57.57,0,0,0-.1-.42A.42.42,0,0,0,45,52s-.08,0-.08-.07,0-.06.1-.06h0l.12,0h.47a.21.21,0,0,1,.19.15l.76,2c0,.09.06.13.09.13s.05,0,.09-.08l.9-1.69a2.24,2.24,0,0,1,.18-.3A.17.17,0,0,1,48,52l.1,0h.44c.05,0,.08,0,.08.06s0,.05-.06.05a.35.35,0,0,0-.29.12.79.79,0,0,0-.11.4v.14l0,1.34v.09A.76.76,0,0,0,48.19,54.71Zm4.13.69a.77.77,0,0,1-.31,0,.55.55,0,0,1-.38-.27,4.2,4.2,0,0,1-.37-.87,1.21,1.21,0,0,0-.16-.33.37.37,0,0,0-.23-.1h-.23s0,0,0,.1l0,.44a1.54,1.54,0,0,0,0,.56.33.33,0,0,0,.27.2c.06,0,.09,0,.08.08s0,.06-.08,0l-.08,0-.35-.06-.25,0h-.4c-.05,0-.08,0-.07-.07s0,0,0,0a.31.31,0,0,0,.3-.33l0-.2v-.09l.19-1.54a.73.73,0,0,0,0-.36.48.48,0,0,0-.32-.22c-.06,0-.08,0-.08-.08a.05.05,0,0,1,.06-.05l.08,0,.35.06.52,0,.5,0a1.05,1.05,0,0,1,.64.3.71.71,0,0,1,.2.6.67.67,0,0,1-.17.37.71.71,0,0,1-.36.22s0,0,0,0a.08.08,0,0,0,0,.05l0,.11.14.36.17.42a1.15,1.15,0,0,0,.17.3.29.29,0,0,0,.2.11h.14s0,0,0,.05S52.45,55.36,52.33,55.4ZM55,53.14a2.17,2.17,0,0,1,0,.27c0,.11-.05.15-.11.15s0,0,0-.1a.37.37,0,0,0-.1-.33,1,1,0,0,0-.48-.17l-.26,0h-.14c-.08,0-.12.08-.14.2l0,.09-.07.46a.59.59,0,0,0,0,.26s.05.06.13.07h.16l.18,0a.36.36,0,0,0,.35-.19l.07-.09a.06.06,0,0,1,.07,0s0,0,0,.06,0,0,0,.09a.39.39,0,0,1,0,.1s0,.15,0,.33,0,.2,0,.29l0,.1a.06.06,0,0,1,0,0h0s-.05,0-.05-.09a.53.53,0,0,0-.08-.3l-.13-.09a2,2,0,0,0-.3-.06l-.14,0a.23.23,0,0,0-.14,0,.18.18,0,0,0-.06.12,1.88,1.88,0,0,0-.06.34l0,.19a1.59,1.59,0,0,0,0,.44.36.36,0,0,0,.06.14.26.26,0,0,0,.15.05,1.12,1.12,0,0,0,1.19-.36l0,0,0,0a.07.07,0,0,1,0,.05.75.75,0,0,1-.17.39.55.55,0,0,1-.27.2.77.77,0,0,1-.38,0l-.29-.06-.24-.06-.36-.07-.46,0-.13,0a0,0,0,0,1,0-.06s0,0,.06-.05a.31.31,0,0,0,.17-.07.36.36,0,0,0,.1-.18,1.42,1.42,0,0,0,.07-.31l.26-1.69a.56.56,0,0,0,0-.34.53.53,0,0,0-.3-.17.06.06,0,0,1,0-.07s0,0,.08,0l.06,0,.1,0,.21,0,.79.13c.46.07.74.11.85.11h0s.06,0,.05.08S55,53.05,55,53.14Zm5.2,3.05a.57.57,0,0,1-.24.22.82.82,0,0,1-.38,0l-.29,0-.25,0-.37,0h-.6a0,0,0,0,1-.05-.05s0,0,0-.06a.48.48,0,0,0,.18-.08A.41.41,0,0,0,58.3,56a1.26,1.26,0,0,0,0-.31l.12-1.71a.34.34,0,0,0-.31-.46h0a.34.34,0,0,0-.21.1,2.62,2.62,0,0,0-.28.4l-.43.69-.48.75c-.15.25-.24.38-.26.39l-.17.25c0,.06-.08.09-.12.08s0,0-.05-.06l0-.12,0-.14-.32-1.22q-.12-.45-.19-.8a2.8,2.8,0,0,0-.15-.55.36.36,0,0,0-.2-.19c-.06,0-.08,0-.08-.09a.06.06,0,0,1,.07,0l.06,0,.24,0,.35.06.22,0,.19,0s.05,0,.05.07,0,.05-.1.05a.17.17,0,0,0-.18.16,2.39,2.39,0,0,0,.11.8l.29,1.24c0,.05,0,.08.05.08s0,0,.05,0l.63-1a2.19,2.19,0,0,0,.36-.72.27.27,0,0,0-.06-.23.42.42,0,0,0-.24-.15c-.05,0-.07,0-.07-.07s0,0,.07,0l.11,0,.22,0,.21,0,.32,0h.19l.21,0,.8.07.86,0h0s.06,0,.06.07,0,.09,0,.18,0,.21,0,.27,0,.17-.09.16,0,0,0-.1a.34.34,0,0,0-.13-.31.88.88,0,0,0-.5-.13l-.26,0h-.14c-.08,0-.12.09-.13.21v.09l0,.47a.63.63,0,0,0,0,.25s.06.06.13.07h.34a.36.36,0,0,0,.35-.21l.05-.1a.06.06,0,0,1,.07,0s0,0,0,.06a.35.35,0,0,1,0,.1s0,.07,0,.1a2.6,2.6,0,0,0,0,.32c0,.11,0,.21,0,.29v.11a.07.07,0,0,1,0,0h0s-.06,0-.06-.09a.43.43,0,0,0-.11-.28.22.22,0,0,0-.13-.08l-.3,0H59.1a.23.23,0,0,0-.15,0,.17.17,0,0,0-.06.13,3.13,3.13,0,0,0,0,.34l0,.19a1.61,1.61,0,0,0,0,.44.23.23,0,0,0,.08.14.24.24,0,0,0,.14,0,1.14,1.14,0,0,0,1.17-.46s0,0,0,0h0a.08.08,0,0,1,0,0A.75.75,0,0,1,60.19,56.19Zm3.16.13a.64.64,0,0,1-.31.09.52.52,0,0,1-.41-.2,3.89,3.89,0,0,1-.51-.81,1,1,0,0,0-.2-.3.42.42,0,0,0-.25-.05h-.13l-.09,0s0,0,0,.1l0,.44a1.49,1.49,0,0,0,.1.55.35.35,0,0,0,.3.15c.05,0,.09,0,.09.07s0,.06-.07.06H61.4l-.25,0-.18,0-.14,0h-.08s-.08,0-.08-.06a.06.06,0,0,1,0-.06.32.32,0,0,0,.19-.13A.4.4,0,0,0,61,56v-.29l-.06-1.56a.69.69,0,0,0-.08-.34.46.46,0,0,0-.35-.17c-.05,0-.09,0-.09-.07s0-.06.06-.06h.44l.52,0a4,4,0,0,1,.49,0,1,1,0,0,1,.68.2.71.71,0,0,1,.29.55.66.66,0,0,1-.11.39.74.74,0,0,1-.3.28s0,0,0,0l0,0a.39.39,0,0,1,.06.1l.21.33.23.39a.9.9,0,0,0,.21.27.29.29,0,0,0,.2.07h.14s0,0,0,0S63.45,56.26,63.34,56.32Zm2-.51a.87.87,0,0,1-.57.39,1.82,1.82,0,0,1-.48,0l-.22,0c-.07,0-.11,0-.12,0s0,0,0-.11a1.34,1.34,0,0,0-.12-.27,1.89,1.89,0,0,1-.14-.36c0-.07,0-.11,0-.12s0,0,0,0a1.37,1.37,0,0,0,.47.54.74.74,0,0,0,.57.15.55.55,0,0,0,.35-.24.54.54,0,0,0,.1-.41.47.47,0,0,0-.14-.26A.85.85,0,0,0,64.7,55l-.34-.08a1.86,1.86,0,0,1-.68-.27.7.7,0,0,1-.25-.45.82.82,0,0,1,.12-.63.73.73,0,0,1,.51-.35,1.08,1.08,0,0,1,.4,0l.15,0,.14,0,.06,0,.07-.06h0s0,0,.06.06l0,.17,0,.08.07.21.06.18a.16.16,0,0,1,0,0c0,.06,0,.1,0,.1s0,0-.07-.07a.9.9,0,0,0-.4-.46.79.79,0,0,0-.55-.12.52.52,0,0,0-.3.19.41.41,0,0,0-.09.33.4.4,0,0,0,.18.26,2.17,2.17,0,0,0,.54.16,1.71,1.71,0,0,1,.73.28.9.9,0,0,1,.3.53A1,1,0,0,1,65.29,55.81Zm3.46-.9-.08,0a2.48,2.48,0,0,0-.51.15,2.21,2.21,0,0,0-.46.2l0,0s-.06,0-.08,0,0,0,0-.06a.32.32,0,0,0,.12-.17.24.24,0,0,0,0-.18,2,2,0,0,0-.36-.43.22.22,0,0,0-.17-.09,2.83,2.83,0,0,0-.46.15l-.27.1-.17.1a.52.52,0,0,0-.07.33v.18a.37.37,0,0,0,0,.14c.06.17.21.22.46.17.05,0,.08,0,.1,0s0,.06-.05.08l-.11,0a1.33,1.33,0,0,0-.25.06l-.3.14-.18.09a.06.06,0,0,1-.08,0,.07.07,0,0,1,0-.08.39.39,0,0,0,.13-.19,3.5,3.5,0,0,0,0-.46l.07-1.47c0-.12,0-.2,0-.24l0-.45,0-.23h0c0-.12,0-.18,0-.19s.08,0,.17.13l.09.09,1.69,1.77a.61.61,0,0,0,.25.18.49.49,0,0,0,.28,0s0,0,.06,0S68.78,54.91,68.75,54.91Z"/><path class="cls-1" d="M61.61,53.64a.27.27,0,0,0-.19.07.39.39,0,0,0,0,.23l0,.74a.25.25,0,0,0,0,.18s.08,0,.17,0l.47,0a.32.32,0,0,0,.17-.1.5.5,0,0,0,.14-.4.75.75,0,0,0-.23-.53A.73.73,0,0,0,61.61,53.64Z"/><path class="cls-1" d="M67,54.08l-.49-.52c-.12-.13-.2-.19-.22-.18s0,.06,0,.18v.1l0,.62v.06a.11.11,0,0,0,0,.06s.07,0,.17,0l.59-.22s.07,0,.06-.07l0,0Z"/><path class="cls-2" d="M46.17,35.69c0,.2,0-.12,0,0Z"/><path class="cls-2" d="M34.56,3.33l.7,3.7L36,6.9c-.1-.62-.15-.94-.26-1.56S36.26,4.1,37.13,4s1.61.33,1.67,1,.09.95.14,1.58l.76-.06c-.1-1.51-.16-2.25-.27-3.76A34.63,34.63,0,0,0,34.56,3.33Z"/><path class="cls-2" d="M40,2.66c.08,1.51.13,2.26.22,3.77l.76,0c0-.63,0-.95-.06-1.58s.66-1.16,1.52-1.16S44,4.18,44,4.81s0,.95-.06,1.58l.76,0c.09-1.51.14-2.26.22-3.76A34,34,0,0,0,40,2.66Z"/><path class="cls-2" d="M45.57,2.7c-.11,1.5-.17,2.25-.28,3.76l.76.06L46.19,5a1.37,1.37,0,0,1,1.67-1c.86.12,1.47.74,1.36,1.36s-.15.93-.27,1.55l.75.14.72-3.7A35,35,0,0,0,45.57,2.7Z"/><path class="cls-2" d="M30.76,4.24c.41,1.45.62,2.17,1,3.62l.19,0-.44-1.52a1.21,1.21,0,0,1,2.34-.59c.14.62.21.93.34,1.54l.45-.09c-.3-1.48-.46-2.22-.76-3.7C32.65,3.72,32,3.88,30.76,4.24Z"/><path class="cls-2" d="M51,3.47c-.3,1.48-.46,2.21-.77,3.7l.51.11.34-1.54a1.21,1.21,0,0,1,2.34.6c-.18.61-.27.91-.44,1.51l.17,0,1-3.62C52.93,3.9,52.28,3.74,51,3.47Z"/><path class="cls-2" d="M37.9.23,38,.85,36.72,1c0-.24,0-.37-.08-.62L35.49.54c0,.25.06.37.1.62-.5.07-.75.12-1.24.21L34.23.76l-1,.21c.18.83.26,1.24.44,2.08a35.76,35.76,0,0,1,5.5-.8C39.06,1.41,39,1,39,.14Z"/><path class="cls-2" d="M31.49,1.36l.15.6-.85.23c-.07-.24-.1-.36-.17-.6l-.78.22c.08.23.11.35.18.59l-.84.26c-.08-.24-.12-.36-.19-.59l-.35.11c.27.81.39,1.21.65,2a36.3,36.3,0,0,1,3.74-1L32.58,1.1Z"/><path class="cls-2" d="M53.37,1.36l-.15.6.85.23.17-.6.77.22-.18.59.84.26c.08-.24.12-.36.19-.59l.35.11c-.27.81-.4,1.21-.66,2a35.43,35.43,0,0,0-3.74-1c.19-.83.29-1.24.48-2.07Z"/><path class="cls-2" d="M44.33,0l0,.62c-.5,0-.75,0-1.26,0,0-.25,0-.37,0-.62H41.91c0,.25,0,.37,0,.62-.51,0-.75,0-1.26,0,0-.25,0-.37,0-.62-.43,0-.64,0-1.06.06.05.85.08,1.27.14,2.12a35.44,35.44,0,0,1,5.54,0c.05-.84.08-1.27.13-2.12Z"/><path class="cls-2" d="M50.74.78c0,.24-.07.36-.11.61l-1.24-.21c0-.24.05-.37.1-.61L48.34.4c0,.24,0,.36-.08.61L47,.86c0-.25,0-.37.07-.62L46,.15c-.07.85-.1,1.27-.17,2.12a34.58,34.58,0,0,1,5.49.81c.18-.83.27-1.24.45-2.07Z"/><path class="cls-2" d="M53.34,9.83a41,41,0,0,0-21.73,0l-.44-1.4a42.67,42.67,0,0,1,22.6,0C53.6,9,53.51,9.27,53.34,9.83Z"/><path class="cls-2" d="M53.17,10.35a40.56,40.56,0,0,0-21.33,0Z"/><path class="cls-1" d="M61.9,28.14l-.1.17h0l-.1.15-.2.32a6.08,6.08,0,0,0-.93,3,6.19,6.19,0,0,0,2.11,4.5,12.76,12.76,0,0,1,1.11,1.26c.37-.14.77-.29,1.23-.43a12.78,12.78,0,0,1,3.88-.51H69A27,27,0,0,0,64.19,33a2.76,2.76,0,0,1-1.39-2,2.38,2.38,0,0,1,.06-.81,2.82,2.82,0,0,1,.18-.55h0l.08-.24a20.74,20.74,0,0,0,2.5,2.06,1.48,1.48,0,0,0,.85.29,1.88,1.88,0,0,0,1-.34,5.64,5.64,0,0,0,1.43-1.23l-2.76-2.52-.49-.45a.85.85,0,0,0-.58-.15,1.75,1.75,0,0,0-.93.35.3.3,0,0,1-.38,0,.42.42,0,0,1-.11-.42,2,2,0,0,0-.08-1.66l-.45-.49-2.67-2.55a6.42,6.42,0,0,0-.88,1.74A2.21,2.21,0,0,0,59.9,26,22.35,22.35,0,0,0,61.9,28.14Z"/><path class="cls-1" d="M72.72,45.08a3.05,3.05,0,0,1-2,1.46l-.36.08-.08,0-.3,0-.12,0-.31,0h-.82L70,46.12h0a1.26,1.26,0,0,0,.47-.41A3.85,3.85,0,0,0,71,44.5a10.89,10.89,0,0,0,.19-2.29,25.36,25.36,0,0,0-5.31-.58H65.2a3.68,3.68,0,0,1-.06.38l0,.11s0,0,0,0a4.09,4.09,0,0,1-2.91,2.68c-1,.14-1.41,1.33-1.47,2.47,0,.06,0,.12,0,.17l.54.5H60.7a.39.39,0,0,1-.06.13c-.1.17-.21.28-.41.56l1.14.57-2.06,0c-.24,0-.43.36-.43.62s.19.58.43.58h6.45a4.51,4.51,0,0,0,1.23-.3l.12-.09,0,0h0l.8-.76h1.9a3.75,3.75,0,0,0,1-.31l0,0,.17-.09.05,0,.17-.11,0,0,.21-.16,0,0,.15-.14.07-.06.14-.14L72,48.1c.07-.08.13-.16.19-.24s.11-.18.16-.27l.06-.13c0-.05.05-.1.07-.16l.07-.17,0-.12c0-.08,0-.15.06-.22l0-.09a2.3,2.3,0,0,0,0-.26.28.28,0,0,1,0-.06c0-.1,0-.2,0-.29v0c0-.1,0-.21,0-.32v0c0-.12,0-.24,0-.36S72.72,45.17,72.72,45.08Zm-9,4.18a.86.86,0,0,1-.86-.86.17.17,0,0,1,.17-.17h1.39a.17.17,0,0,1,.17.17A.86.86,0,0,1,63.71,49.26Z"/><path class="cls-1" d="M22.95,38.7a3.5,3.5,0,0,0,1.51-2.63c-.26.45-1.28,1.8-1.91,1-.09-.11-.11-.16-.11-.19a12.33,12.33,0,0,0-.89,1A9.69,9.69,0,0,1,22.95,38.7Z"/><path class="cls-1" d="M24.68,31.77a6.06,6.06,0,0,1-.16,1.42l0,1.57a2.64,2.64,0,0,1,.27.54,2.91,2.91,0,0,1-.18,2.36l.08,2.83a10.78,10.78,0,0,1,1.34,2.13l-.51-16.74a2.79,2.79,0,0,1-.4.67c-.28.34-.55.66-.81.95l.08,2.66A6.51,6.51,0,0,1,24.68,31.77Z"/><path class="cls-1" d="M17,31.34a1.86,1.86,0,0,0,1,.34,1.46,1.46,0,0,0,.84-.29,19.84,19.84,0,0,0,2.5-2.06l.08.24h0a3.07,3.07,0,0,1,.18.55h0a2.47,2.47,0,0,1,.06.81,2.74,2.74,0,0,1-1.39,2,27.46,27.46,0,0,0-4.79,3.64h.17a12.17,12.17,0,0,1,3.78.51c.45.15.86.3,1.22.45a13.31,13.31,0,0,1,1.13-1.28,6.17,6.17,0,0,0,2.11-4.5,6.13,6.13,0,0,0-.93-3l-.21-.32-.1-.15h0l-.11-.17a21.3,21.3,0,0,0,2-2.14,2.21,2.21,0,0,0,.34-2.09,5.9,5.9,0,0,0-.88-1.74L21.4,24.72l-.45.49a1.94,1.94,0,0,0-.08,1.66.41.41,0,0,1-.11.42.3.3,0,0,1-.38,0,1.79,1.79,0,0,0-.93-.35.86.86,0,0,0-.58.15l-.48.45-2.77,2.52A6,6,0,0,0,17,31.34Z"/><path class="cls-1" d="M25.2,49.29l-2.06,0,1.14-.57c-.19-.29-.3-.39-.4-.56a.23.23,0,0,1,0-.13h-.56l.54-.5v-.17c-.06-1.14-.46-2.33-1.46-2.47a4.08,4.08,0,0,1-2.92-2.68.05.05,0,0,1,0,0,.51.51,0,0,1,0-.11,2.52,2.52,0,0,1-.08-.39h-.66a23.53,23.53,0,0,0-5.33.62,10.67,10.67,0,0,0,.19,2.25,4,4,0,0,0,.52,1.2,1.18,1.18,0,0,0,.48.41h0l1.27.62h-.83l-.31,0-.12,0-.3,0-.09,0-.35-.08a3,3,0,0,1-2-1.46c0,.09,0,.18,0,.26h0c0,.12,0,.24,0,.36a0,0,0,0,1,0,0c0,.11,0,.22,0,.32s0,0,0,0a2.92,2.92,0,0,0,0,.29.27.27,0,0,0,0,.06c0,.09,0,.17,0,.26s0,.06,0,.09L12,47a.64.64,0,0,1,0,.12,1.5,1.5,0,0,0,.07.17,1.08,1.08,0,0,0,.07.16l.06.13a1.72,1.72,0,0,0,.16.27c.05.08.12.17.18.24l.06.07.15.14.06.06.15.14,0,0,.21.16,0,0,.17.11.06,0,.17.09,0,0a3.79,3.79,0,0,0,1,.31h1.9l.8.76h0l0,0,.11.09a4.65,4.65,0,0,0,1.24.3H25.2c.24,0,.42-.3.42-.58S25.44,49.29,25.2,49.29Zm-4.4,0a.86.86,0,0,1-.86-.86.16.16,0,0,1,.16-.17h1.4a.17.17,0,0,1,.17.17A.86.86,0,0,1,20.8,49.26Z"/><path class="cls-1" d="M40.34,22.37s-.22.49.19.26c1.32.42,2-.75,2.75-2C39.79,20.41,40.34,22.37,40.34,22.37Z"/><path class="cls-1" d="M39.15,22.41s.53.12.21-.24c.14-1.37-1.16-1.83-2.5-2.28C37.35,23.36,39.15,22.41,39.15,22.41Z"/><path class="cls-1" d="M55.74,21h-.33s.06-.17.33-.78c1.77-3.64-1.13-1.49-1.13-1.49s-6.42,4-7.29,5.39a2.42,2.42,0,0,0,0,3.18c.7.89.37.1.6,1.63s-.62,1.57-.62,1.57l-2.23.12S43.61,25.89,43.32,25s-.37-1.63-1.13-1.63a.83.83,0,0,0-.84.75.6.6,0,0,1-.33.07.5.5,0,0,0-.39.24,3.05,3.05,0,0,0-.6,0V21.36a.29.29,0,0,0,.07-.18c1.13-.79.63-2.06.1-3.38-2.32,2.63-.43,3.38-.43,3.38l0,0v3.25l-.1,0c-.4.12-.31.34-.31.34l.41,0v1H40v-1h.16l.9.84-1.28,4.76v.14l-2.19-.12s-.85,0-.62-1.57-.11-.74.6-1.63a2.42,2.42,0,0,0,0-3.18c-.87-1.39-7.28-5.39-7.28-5.39s-2.91-2.15-1.14,1.49c.27.62.33.78.33.78H29.2s-1,.13.8,2c-.33.06-1.37-.27.66,2.37-.28,0-1.4-.08.44,1.88-.25,0-1.22.18.37,2.18-.22,0-.91,0,.45,1.61-.22,0-1.11.33,1,1.77-.14,0-.86.58,1.26,1.76-.19.2-.23,1.26,1.42,1.36-.06.25-.31,1.18,3,1,0,.17.13.46-.55.47s-1.75-.1-.64.66,1.57-.23,1.8,1.29c.06.53.16,1.15.16,1.15l-2.76,4.91s.68-.22,1,.12a1.9,1.9,0,0,0,1.73.74,2.16,2.16,0,0,0,1.8.7h0a1.93,1.93,0,0,0,2.39-.06,2.25,2.25,0,0,0,2.17-.64,1.91,1.91,0,0,0,1.73-.74c.31-.34,1-.12,1-.12l-2.76-4.91s.11-.62.16-1.15c.23-1.52.69-.52,1.8-1.29s0-.64-.64-.66-.56-.31-.56-.47c3.33.19,3.08-.74,3-1,1.66-.1,1.61-1.16,1.42-1.36,2.13-1.18,1.4-1.71,1.26-1.76C54.13,31.34,53.25,31,53,31c1.37-1.65.68-1.59.45-1.61,1.59-2,.63-2.18.38-2.18,1.83-2,.72-1.86.43-1.88,2-2.64,1-2.31.66-2.37C56.7,21.12,55.74,21,55.74,21ZM42.05,25a.37.37,0,1,1,.37-.37A.37.37,0,0,1,42.05,25Z"/><path class="cls-1" d="M23.85,40.17c-.68-.77-1.59-1.6-4.53-2.59a11.64,11.64,0,0,0-3.63-.49,18.93,18.93,0,0,0-3.73.37,5.72,5.72,0,0,1,1.38,4.27,24.45,24.45,0,0,1,5.29-.59c2.37,0,5.52.4,7.1,2.32a3.54,3.54,0,0,1,.37.54A10.45,10.45,0,0,0,23.85,40.17Zm-8.32.3a.85.85,0,0,1-.57.32,2.09,2.09,0,0,1-.46,0l-.22,0c-.06,0-.1,0-.11,0s0,0,0-.09a2.42,2.42,0,0,0-.1-.25,1.41,1.41,0,0,1-.13-.32c0-.06,0-.09,0-.09s0,0,0,0a1.33,1.33,0,0,0,.43.51.79.79,0,0,0,.54.15.55.55,0,0,0,.36-.19.43.43,0,0,0,.11-.35.38.38,0,0,0-.12-.24.77.77,0,0,0-.33-.14l-.33-.09a1.85,1.85,0,0,1-.64-.27A.59.59,0,0,1,13.8,39a.7.7,0,0,1,.14-.55.75.75,0,0,1,.51-.28,1.07,1.07,0,0,1,.39,0l.14,0,.14,0,.06,0,.07,0h0s0,0,.06.06l0,.15,0,.07.05.18,0,.17a0,0,0,0,1,0,0c0,.05,0,.08,0,.09s0,0-.07-.07A.83.83,0,0,0,15,38.4a.78.78,0,0,0-.53-.13.44.44,0,0,0-.3.15.37.37,0,0,0-.11.29.36.36,0,0,0,.17.23,2.2,2.2,0,0,0,.51.15,1.8,1.8,0,0,1,.7.28.8.8,0,0,1,.26.48A.76.76,0,0,1,15.53,40.47Zm1.62.1H17a4.14,4.14,0,0,0-.44,0,1.66,1.66,0,0,0-.32,0l-.15,0a.05.05,0,0,1-.06,0h0l.06,0a.41.41,0,0,0,.19-.14.44.44,0,0,0,0-.24V40l-.1-1.51a.39.39,0,0,0-.08-.25.39.39,0,0,0-.25-.08l-.13,0a.05.05,0,0,1,0,0s0-.05,0-.05h.36l.28,0,.15,0,.33,0s.07,0,.07,0,0,0,0,0l0,0a.36.36,0,0,0-.19.09.38.38,0,0,0,0,.22L16.76,40l0,.19a.32.32,0,0,0,.13.21.39.39,0,0,0,.25.06c.07,0,.1,0,.11.05S17.24,40.57,17.15,40.57Zm1-.49a1,1,0,0,0,.63.29,1.37,1.37,0,0,0,.44-.07,1.12,1.12,0,0,0,.37-.22L19.8,40a.06.06,0,0,1,.05,0s0,0,0,0-.06.13-.17.24a1.39,1.39,0,0,1-1.06.41,1.36,1.36,0,0,1-1-.39,1.24,1.24,0,0,1-.34-.94,1.45,1.45,0,0,1,.56-1.09,1.51,1.51,0,0,1,1.58-.1l.13.07.07,0a.06.06,0,0,0,.06,0l0-.06,0,0s.06,0,.06.13v.46l0,.08a1,1,0,0,1,0,.12.06.06,0,0,1-.06.07s0,0,0,0a.86.86,0,0,0-.1-.23,1.73,1.73,0,0,0-.18-.24,1.06,1.06,0,0,0-.78-.38.77.77,0,0,0-.64.28,1.15,1.15,0,0,0-.27.75A1.28,1.28,0,0,0,18.2,40.08Z"/><path class="cls-1" d="M68.9,37.09a12.31,12.31,0,0,0-3.73.49c-3,1-4,1.82-4.67,2.59A10.28,10.28,0,0,0,58.17,44a4.92,4.92,0,0,1,.38-.53c1.63-1.92,4.88-2.32,7.32-2.32a25.85,25.85,0,0,1,5.45.59,5.66,5.66,0,0,1,1.43-4.27A20.1,20.1,0,0,0,68.9,37.09Zm-2.84,3.29a.55.55,0,0,1-.2.23,1,1,0,0,1-.38.1l-.31,0h-.26l-.37,0-.48.07-.12,0a.06.06,0,0,1-.07,0,.07.07,0,0,1,0-.06.35.35,0,0,0,.16-.11.28.28,0,0,0,0-.17,1.37,1.37,0,0,0,0-.27l-.21-1.47a.42.42,0,0,0-.13-.28.56.56,0,0,0-.34-.07.07.07,0,0,1-.07,0s0,0,.07,0h.18l.22,0,.82-.08c.47,0,.77-.08.88-.11h0s.06,0,.07.05a1.07,1.07,0,0,0,0,.15,1.31,1.31,0,0,1,0,.23c0,.1,0,.15-.06.16s0,0,0-.08a.3.3,0,0,0-.19-.25,1.17,1.17,0,0,0-.53,0l-.27,0-.15,0c-.07,0-.1.1-.08.2l0,.07,0,.41a.46.46,0,0,0,.07.21s.07,0,.15,0h.06l.1,0,.18,0a.35.35,0,0,0,.31-.24l0-.1a.06.06,0,0,1,.05,0,0,0,0,0,1,.06,0V39a.61.61,0,0,1,0,.08,2,2,0,0,0,.06.28,1.43,1.43,0,0,1,0,.25l0,.09v0h0s-.06,0-.08-.06a.37.37,0,0,0-.17-.22.3.3,0,0,0-.15,0l-.3,0H64.7a.21.21,0,0,0-.14,0,.15.15,0,0,0,0,.11,2.25,2.25,0,0,0,0,.3l0,.17a1.17,1.17,0,0,0,.1.37.24.24,0,0,0,.1.11.31.31,0,0,0,.16,0c.59-.06,1-.25,1.09-.58l0,0h0l0,0A.61.61,0,0,1,66.06,40.38Zm1.81,0a.92.92,0,0,1-.64.26,2.21,2.21,0,0,1-.48-.08l-.23,0-.12,0a.25.25,0,0,1,0-.1,1.24,1.24,0,0,0-.07-.25,1.37,1.37,0,0,1-.09-.33c0-.06,0-.09.06-.09s0,0,0,0a1.23,1.23,0,0,0,.39.53.91.91,0,0,0,.55.2.6.6,0,0,0,.39-.15.41.41,0,0,0,.17-.34.34.34,0,0,0-.1-.24.83.83,0,0,0-.32-.17l-.34-.12a2.2,2.2,0,0,1-.66-.32.56.56,0,0,1-.18-.42.64.64,0,0,1,.22-.52A.84.84,0,0,1,67,38a1.31,1.31,0,0,1,.4.06l.14,0,.14,0,.06,0,.08,0h0s0,0,0,.06v.15a.25.25,0,0,0,0,.06l0,.18,0,.17a.17.17,0,0,1,0,0c0,.05,0,.08-.05.08s0,0-.05-.07a.83.83,0,0,0-.34-.44.94.94,0,0,0-.55-.18.6.6,0,0,0-.34.12.35.35,0,0,0-.14.27.33.33,0,0,0,.14.24,2,2,0,0,0,.52.21,2,2,0,0,1,.7.34.71.71,0,0,1,.21.5A.72.72,0,0,1,67.87,40.38Zm3.41-1.8v.16s0,.06-.06.06-.05,0-.07-.08a.34.34,0,0,0-.15-.26.7.7,0,0,0-.36-.11,1.4,1.4,0,0,0-.42,0c-.05,0-.09.1-.1.21L69.95,40a.7.7,0,0,0,.06.46.5.5,0,0,0,.36.17s.07,0,.06.08,0,0-.07,0h-.05l-.16,0-.28,0h-.31l-.48,0H69s-.06,0-.06-.05,0,0,0,0,0,0,.08,0a.43.43,0,0,0,.28-.08.42.42,0,0,0,.13-.25v-.09l.18-1.65c0-.1,0-.15-.17-.17a2.29,2.29,0,0,0-.61,0,.28.28,0,0,0-.16.08.83.83,0,0,0-.13.25l0,0c0,.06,0,.08-.08.07s-.07,0-.06-.06a.84.84,0,0,1,0-.14l0-.16,0-.17,0-.11a.1.1,0,0,1,.1-.07h.08L69,38l.44,0,.53,0c.34,0,.7.05,1.09.07h.14c.08,0,.12,0,.12.1v.13S71.27,38.5,71.27,38.58Z"/><path class="cls-1" d="M25.92,44.74a3.74,3.74,0,0,0-.27-.35c-.48-.24-1.43-.73-2.13-1.17a3.16,3.16,0,0,1,.11,1.45,2.62,2.62,0,0,1,.51.78,5.4,5.4,0,0,1,.41,2.32,7.18,7.18,0,0,0,.71.78,3.4,3.4,0,0,0,.91-1.11A5,5,0,0,0,25.92,44.74Z"/><path class="cls-1" d="M61.56,38.62A10.5,10.5,0,0,1,63,37.86c-.25-.3-.52-.61-.84-.92,0,0,0,.07-.11.19-.63.75-1.65-.59-1.91-1A3.48,3.48,0,0,0,61.56,38.62Z"/><path class="cls-1" d="M93.73,35.47c-3.66,0-6.64-.67-9.06-3.16l3.76-3.76c1.24,1.24,3.42,1.68,5.34,1.68,2.32,0,3.43-.77,3.43-2.15a2,2,0,0,0-.47-1.41A2.68,2.68,0,0,0,95.14,26l-2.89-.4a8.06,8.06,0,0,1-4.8-2.11,6.62,6.62,0,0,1-1.64-4.8c0-4.36,3.29-7.55,8.73-7.55,3.42,0,6,.8,8.06,2.85L98.9,17.71a5.91,5.91,0,0,0-4.54-1.41c-2,0-2.89,1.18-2.89,2.21a1.56,1.56,0,0,0,.47,1.11,2.7,2.7,0,0,0,1.65.71l2.88.4a8,8,0,0,1,4.7,2A7,7,0,0,1,103,28C103,32.82,98.77,35.47,93.73,35.47Zm24.45-.2-1.11-3.56h-7.36l-1.17,3.56h-6.15l8.7-23.91h4.53l8.7,23.91Zm-4.67-14.84-2.15,6.38h4.17Zm11.85,14.84V11.36h5.87V30h10v5.24Zm24.18,0h-4.37l-7.89-23.91h6.07l4,13.37,4-13.37h6.11Zm18.5,0-1.11-3.56h-7.35l-1.18,3.56h-6.15L161,11.36h4.53l8.7,23.91Zm-4.67-14.84-2.15,6.38h4.16Zm27.2,12.49a8.89,8.89,0,0,1-6.44,2.35h-8.87V11.36h8.87a8.9,8.9,0,0,1,6.44,2.35c2.79,2.79,2.49,5.84,2.49,9.6S193.35,30.13,190.57,32.92Zm-4-15a3.06,3.06,0,0,0-2.83-1.35h-2.58V30h2.58a3.06,3.06,0,0,0,2.83-1.34c.47-.67.64-1.31.64-5.37S187,18.61,186.54,17.94Zm23.92,14.84a9.64,9.64,0,0,1-13.36,0c-2.52-2.52-2.42-5.87-2.42-9.47s-.1-6.95,2.42-9.47a9.66,9.66,0,0,1,13.36,0c2.52,2.52,2.42,5.88,2.42,9.47S213,30.27,210.46,32.78Zm-4.34-15.34a3.17,3.17,0,0,0-4.69,0c-.54.7-.87,1.52-.87,5.87s.34,5.14.87,5.85a3.1,3.1,0,0,0,4.69,0c.54-.71.88-1.48.88-5.85S206.66,18.14,206.12,17.44Zm20.54,17.83-4.23-8.89h-2v8.89h-5.88V11.36H224c5.31,0,8.17,3.76,8.17,7.69a6.87,6.87,0,0,1-3.9,6.25l5.17,10Zm-2.89-18.63h-3.32v4.84h3.32a2.42,2.42,0,1,0,0-4.84Z"/><path class="cls-1" d="M111,49.89h-2.78v4h-1.3V42.47h4.29c2.59,0,4.3,1.38,4.3,3.66C115.53,48.61,113.47,49.89,111,49.89Zm.12-6.23h-2.9v5h2.83c1.9,0,3.15-1,3.15-2.54S113,43.66,111.14,43.66Zm14.47,10.28-3.33-4.46H119v4.46h-1.3V42.47h4.94c2.52,0,4.15,1.36,4.15,3.43a3.37,3.37,0,0,1-3.11,3.36l3.53,4.68Zm-3.06-10.28H119v4.66h3.53c1.72,0,3-.88,3-2.37S124.4,43.66,122.55,43.66Zm15.13,0h-7v3.92h6.26v1.18h-6.26v4h7.08v1.18h-8.38V42.47h8.3Zm10.75,0h-6.95v4.1h6.21v1.18h-6.21v5h-1.3V42.47h8.24Zm10.62,0h-7v3.92h6.26v1.18H152v4h7.08v1.18h-8.38V42.47H159ZM163,42.47V53.94h-1.3V42.47Zm7.52,11.47h-1.31V43.66h-3.85V42.47h9v1.19h-3.86ZM186,49c0,3.34-1.92,5.08-4.79,5.08s-4.77-1.74-4.77-5V42.47h1.3v6.59c0,2.48,1.31,3.87,3.51,3.87s3.46-1.28,3.46-3.79V42.47H186Zm10.78,4.9-3.33-4.46h-3.28v4.46h-1.29V42.47h4.93c2.53,0,4.15,1.36,4.15,3.43a3.37,3.37,0,0,1-3.11,3.36l3.52,4.68Zm-3.06-10.28h-3.54v4.66h3.52c1.72,0,3-.88,3-2.37S195.54,43.66,193.69,43.66Zm17.52,10.28h-1.39l-1.35-3h-6.24l-1.37,3h-1.33l5.22-11.55H206Zm-5.85-10.05-2.62,5.86H208Z"/></svg>